# xmcd
#
# Track frame offsets:
#	150
#	11048
#	21843
#	34090
#	46297
#	60385
#	79136
#	91095
#	101855
#	114661
#	125523
#	144215
#
# Disc length: 2102 seconds
#
# Revision: 0
# Processed by: cddbd v1.5.2PL0 Copyright (c) Steve Scherf et al.
# Submitted via: EZCDAudioConverter 5.5.0.1
#
DISCID=9508340c
DTITLE=Los 5 Latinos - La Historia de.. Vol 1
DYEAR=2000
DGENRE=Balada
TTITLE0=Tu Eres Mi Destino
TTITLE1=El Humo Ciega Tus Ojos
TTITLE2=Venecia sin Tí
TTITLE3=Llorando en la Capilla
TTITLE4=Una Casa en la Cima del Mundo
TTITLE5=Lamento Borricano
TTITLE6=Extraños en la Noche
TTITLE7=Verás, Verás
TTITLE8=Esta es mi Canción
TTITLE9=Vals del Recuerdo
TTITLE10=Un Payaso en el Paraíso
TTITLE11=Para Vigo Me voy
EXTD=
EXTT0=
EXTT1=
EXTT2=
EXTT3=
EXTT4=
EXTT5=
EXTT6=
EXTT7=
EXTT8=
EXTT9=
EXTT10=
EXTT11=
PLAYORDER=
